ply
format ascii 1.0
element vertex 177
property float x
property float y
property float z
property uchar red
property uchar green
property uchar blue
end_header
-0.710761666297912598 0.180680200457572937 1.49545538425445557 42 54 77
0.970229864120483398 -0.206778213381767273 1.63011884689331055 34 43 47
0.18764030933380127 0.462286055088043213 0.953093886375427246 213 230 232
0.846374630928039551 -0.55096137523651123 1.36493468284606934 39 45 49
1.04584288597106934 -0.271422326564788818 1.35920417308807373 39 44 48
-0.645280003547668457 -0.12076171487569809 2.23612141609191895 36 43 50
0.647664427757263184 0.168465867638587952 1.58554887771606445 94 103 101
-0.690342247486114502 -0.609080493450164795 3.05009841918945312 27 36 41
-0.141624107956886292 -1.4427255392074585 3.57416343688964844 32 41 46
0.715595245361328125 0.40920141339302063 1.06825399398803711 52 60 71
0.35004696249961853 -0.601936221122741699 1.6722872257232666 37 47 51
-0.147479891777038574 0.00818170048296451569 1.91615903377532959 87 99 98
0.200162112712860107 -0.980271399021148682 2.05724334716796875 34 43 48
0.928460419178009033 0.198729366064071655 1.46784818172454834 55 61 59
0.735921978950500488 -0.591308295726776123 1.41385972499847412 77 92 95
0.578691363334655762 0.336746096611022949 1.13902556896209717 159 167 148
0.203853264451026917 0.391196936368942261 1.10532939434051514 103 111 115
0.815775454044342041 0.281800121068954468 1.264809250831604 48 52 57
0.636168360710144043 0.204619109630584717 1.51135087013244629 50 59 61
-0.185337111353874207 0.330232858657836914 0.642258107662200928 149 134 112
-0.158748477697372437 0.353769481182098389 1.14040911197662354 55 64 70
-2.46317434310913086 -1.33931457996368408 3.72085714340209961 13 17 20
0.994530916213989258 -0.18157823383808136 1.43145692348480225 31 39 42
-0.158821478486061096 0.462200284004211426 1.04728686809539795 71 82 82
-0.834115266799926758 -0.190913647413253784 2.29622435569763184 54 63 65
0.0132884429767727852 0.291263341903686523 1.30728316307067871 96 103 103
1.01611495018005371 0.0350974015891551971 1.86306262016296387 35 44 46
-0.847504198551177979 -1.20950877666473389 2.70365786552429199 22 31 34
0.465927869081497192 0.150409489870071411 1.64055466651916504 98 103 90
-0.0741711780428886414 0.44036179780960083 1.14960074424743652 66 77 81
0.519117116928100586 -0.144316732883453369 2.10454916954040527 40 51 55
0.929994940757751465 -0.584090471267700195 3.4246523380279541 40 49 54
0.437040835618972778 -0.135138034820556641 1.97069752216339111 40 51 55
-0.643473565578460693 0.293946802616119385 1.31932747364044189 50 64 91
0.549507975578308105 -0.796944022178649902 1.53198456764221191 32 42 44
-1.09134125709533691 -1.21685802936553955 2.81164979934692383 26 34 39
1.01077783107757568 -0.295816153287887573 1.38063597679138184 30 34 39
-0.1846657395362854 -0.520496487617492676 1.81291759014129639 31 40 45
0.707349956035614014 0.474639207124710083 0.950027108192443848 62 68 67
0.984056413173675537 -0.32991519570350647 1.27890491485595703 28 31 36
0.59687507152557373 -0.821416020393371582 1.7238619327545166 34 44 46
-2.23684906959533691 -1.40060079097747803 3.89112091064453125 24 32 35
0.477025300264358521 0.00869631208479404449 2.0366814136505127 78 88 79
0.495296299457550049 0.186219960451126099 1.54130685329437256 111 118 109
-0.112355597317218781 -1.96993875503540039 4.13420534133911133 31 40 45
0.852478563785552979 -0.525424540042877197 1.40294051170349121 124 141 145
0.45505097508430481 0.443094551563262939 0.941815435886383057 61 75 108
0.479028254747390747 0.346704810857772827 1.17271018028259277 135 140 133
0.708535075187683105 0.00788699835538864136 1.84713983535766602 69 79 72
-0.358378291130065918 0.169313907623291016 0.478397488594055176 59 60 52
0.765708327293395996 -0.844850897789001465 1.67087101936340332 33 41 45
-0.866035044193267822 0.291473746299743652 1.30822765827178955 33 41 60
-0.10922347754240036 0.42636483907699585 1.07227873802185059 67 78 80
-0.28987044095993042 -0.645773231983184814 1.35524976253509521 25 32 38
-0.459779977798461914 0.00822168588638305664 1.92552375793457031 69 80 84
-0.655300915241241455 0.378637462854385376 1.11577224731445312 78 87 94
-1.1627345085144043 -0.685477554798126221 2.99558210372924805 37 43 44
-0.227833762764930725 -1.03684377670288086 1.9931495189666748 29 36 42
-0.913721621036529541 0.0610284209251403809 1.82680094242095947 74 83 85
-0.495551615953445435 -0.0768272802233695984 0.684248268604278564 27 33 33
0.115263499319553375 0.362037330865859985 1.35845541954040527 91 103 94
-0.757443249225616455 -1.34705841541290283 2.74312949180603027 24 31 37
-0.183666393160820007 0.30871090292930603 0.636468410491943359 56 59 60
0.815194666385650635 0.279359936714172363 1.34158170223236084 53 59 57
0.803109824657440186 -0.506891489028930664 1.40823578834533691 133 156 158
-0.703112363815307617 -0.160172984004020691 2.33577847480773926 43 54 59
-0.62446904182434082 -0.0205168277025222778 1.99214434623718262 65 77 79
-0.358007133007049561 0.0908805727958679199 1.89429354667663574 89 101 100
0.562541484832763672 0.38006862998008728 1.03142857551574707 141 126 91
-0.599243342876434326 0.26960328221321106 1.29472684860229492 50 62 91
-0.919649302959442139 -0.565575361251831055 3.05512642860412598 41 51 52
0.813620090484619141 -0.42600974440574646 1.56313407421112061 130 149 152
0.131711229681968689 0.499567359685897827 0.895473241806030273 64 70 75
0.85314023494720459 -0.705084800720214844 1.2503502368927002 73 84 83
0.849406242370605469 -0.465058952569961548 1.29201745986938477 61 72 75
-0.390205621719360352 0.375638782978057861 0.944706141948699951 71 81 85
-0.10879836231470108 0.433923929929733276 0.951796591281890869 66 77 79
-0.188823804259300232 0.44093737006187439 0.999107778072357178 173 182 174
-1.61847448348999023 -0.269441992044448853 2.39973616600036621 20 29 31
-0.328841269016265869 0.185754284262657166 1.5374525785446167 60 71 78
0.837998747825622559 -0.581239461898803711 1.29926514625549316 37 45 48
-0.545763015747070312 0.380448341369628906 0.891475677490234375 32 39 49
0.908133447170257568 -0.817727267742156982 4.0949406623840332 39 50 53
0.427552282810211182 -0.110308170318603516 2.04255509376525879 71 80 75
-0.918320119380950928 -1.17460870742797852 2.71402931213378906 27 34 38
0.363940626382827759 0.365486174821853638 1.17817902565002441 181 195 191
0.296755850315093994 0.320627689361572266 1.20307588577270508 60 70 72
-1.56033313274383545 -0.526815831661224365 4.15310859680175781 32 41 44
-0.477976411581039429 -1.41622388362884521 -3.00305008888244629 37 47 49
-0.382861077785491943 -0.985982835292816162 -1.40782368183135986 37 47 49
-2.72414112091064453 -0.954863905906677246 3.96700072288513184 56 67 71
-1.8986515998840332 3.25145626068115234 -1.35262203216552734 56 67 71
-1.68126475811004639 3.73516249656677246 -1.47269296646118164 81 93 100
2.07063412666320801 -0.875771462917327881 2.10619473457336426 13 18 21
1.8555901050567627 -0.910618722438812256 1.70127379894256592 135 129 101
1.3098064661026001 -1.48001706600189209 1.61393678188323975 25 30 33
2.34017348289489746 -3.67847108840942383 1.61178135871887207 16 21 26
2.30785369873046875 -1.707541823387146 1.94472122192382812 17 26 29
1.24991214275360107 -3.06269383430480957 2.33646392822265625 9 13 16
1.50691533088684082 -3.10598134994506836 2.20422863960266113 14 19 24
1.22421491146087646 -0.992731213569641113 1.71858477592468262 53 56 60
1.85287904739379883 -1.13376307487487793 1.50241506099700928 130 150 151
2.0531308650970459 -1.28315234184265137 1.36444604396820068 147 172 173
1.97504603862762451 -1.98080086708068848 1.61246919631958008 16 25 27
0.656511366367340088 -3.51401281356811523 1.83939945697784424 14 19 22
1.07355725765228271 -1.07998788356781006 1.78759336471557617 57 57 45
0.73156273365020752 -3.54155349731445312 2.35151863098144531 5 6 8
2.08670663833618164 -2.27588915824890137 2.07278895378112793 13 21 25
1.35324084758758545 -3.16647553443908691 2.25650119781494141 24 31 34
1.57949137687683105 -0.900444447994232178 1.54104900360107422 255 255 255
1.37761664390563965 -3.40736222267150879 1.72775328159332275 13 18 22
1.73637676239013672 -0.827538967132568359 1.80683839321136475 136 117 89
3.09383440017700195 -2.21946144104003906 0.761834144592285156 17 22 24
3.11555719375610352 -2.15915012359619141 0.309702962636947632 12 15 20
1.8728717565536499 -3.13876438140869141 1.74605560302734375 15 20 25
1.32631993293762207 -1.0660015344619751 1.88242852687835693 98 87 67
2.23041629791259766 -1.26747846603393555 1.29549956321716309 40 46 55
2.86643290519714355 -1.20322048664093018 -0.217780858278274536 39 36 31
1.04848563671112061 -1.83537960052490234 1.62089824676513672 47 56 59
2.30561685562133789 -0.898481667041778564 1.07708549499511719 49 40 32
3.20124030113220215 -2.0455014705657959 1.49401187896728516 8 12 15
2.00304245948791504 -1.12009513378143311 1.38503170013427734 114 132 132
1.2102501392364502 -1.09750592708587646 1.94585943222045898 48 44 33
1.57474708557128906 -0.943534195423126221 1.86700236797332764 151 136 101
2.07728695869445801 -1.04094779491424561 1.37907111644744873 97 111 114
0.234109401702880859 -3.38644981384277344 1.67737019062042236 11 16 16
1.04541158676147461 -3.15948176383972168 2.12045931816101074 7 13 16
1.76602315902709961 -0.813615202903747559 1.8055804967880249 173 167 132
3.17916560173034668 -2.11861562728881836 1.64657318592071533 25 33 35
0.962797939777374268 -2.86292624473571777 1.40397584438323975 27 32 34
2.58424925804138184 -2.33478045463562012 1.27249634265899658 15 24 27
2.31189894676208496 -0.95660245418548584 1.92241275310516357 6 10 13
0.60333019495010376 -2.68629574775695801 1.69469022750854492 12 17 19
1.87517940998077393 -0.769203364849090576 1.77138853073120117 169 151 111
1.24762237071990967 -1.60923385620117188 1.54974114894866943 25 30 33
1.3073585033416748 -1.10386562347412109 1.92587339878082275 79 73 62
1.34356725215911865 -3.31824851036071777 1.96383762359619141 15 21 26
2.26381397247314453 -1.7955024242401123 1.18850886821746826 18 25 30
2.36108636856079102 -1.54975783824920654 1.21388697624206543 45 54 59
1.2104259729385376 -1.12010765075683594 1.75209188461303711 25 30 33
2.59456992149353027 -2.55436205863952637 1.79121005535125732 21 31 34
1.43963336944580078 -1.84636485576629639 1.47976350784301758 29 36 42
0.940625011920928955 -3.4822535514831543 1.58297455310821533 11 15 18
2.7803654670715332 -1.56533873081207275 1.7422405481338501 8 12 15
2.10982298851013184 -0.763054072856903076 1.76571023464202881 22 28 32
2.11409354209899902 -0.763652920722961426 1.92093980312347412 12 16 19
3.76218891143798828 -2.49242329597473145 0.426566362380981445 7 11 14
2.83084607124328613 -1.75501251220703125 0.903580605983734131 11 19 21
1.91495645046234131 -3.10296845436096191 1.69883608818054199 13 21 25
1.18113934993743896 -3.42461276054382324 1.58799839019775391 16 24 27
2.00728154182434082 -1.08281147480010986 1.34481978416442871 99 102 85
1.97224533557891846 -1.14381861686706543 1.40539157390594482 33 39 45
0.981572926044464111 -2.70419001579284668 0.389275401830673218 79 90 94
1.9033362865447998 -0.724195718765258789 1.65166234970092773 44 51 70
1.4327242374420166 -1.03539562225341797 1.60181200504302979 56 72 103
2.63701510429382324 -1.77478873729705811 1.44266283512115479 13 18 21
2.05962610244750977 -1.34344565868377686 1.32859909534454346 40 47 56
1.44408679008483887 -1.08819139003753662 1.88787198066711426 91 89 74
1.9344336986541748 -0.732214212417602539 1.74979627132415771 78 66 54
1.9134669303894043 -1.00738656520843506 2.21802139282226562 15 22 26
1.64323890209197998 -3.23068857192993164 1.30818259716033936 15 21 26
0.647965073585510254 -3.47145771980285645 1.81401586532592773 5 10 13
1.50705444812774658 -2.37282204627990723 1.36928534507751465 25 34 35
1.32864618301391602 -3.16109061241149902 2.17200851440429688 11 16 19
2.35783791542053223 -1.4077991247177124 1.2673264741897583 19 25 31
1.82020199298858643 -3.79282712936401367 0.683663487434387207 28 35 38
2.74003434181213379 -1.70527052879333496 0.98854517936706543 30 38 42
1.46019983291625977 -0.966920554637908936 1.56930983066558838 244 216 119
1.77692019939422607 -0.817283987998962402 1.8086320161819458 159 145 117
3.27411150932312012 -2.32989788055419922 1.21179890632629395 10 14 17
1.70628571510314941 -1.39748263359069824 1.37896203994750977 51 68 92
1.91781210899353027 -1.26629912853240967 1.41357159614562988 66 78 85
2.02994894981384277 -1.83541548252105713 2.17665648460388184 14 19 24
-0.742695212364196777 -0.884738445281982422 -3.62333416938781738 54 57 62
1.88385820388793945 2.77610516548156738 -3.43109297752380371 84 94 96
-0.00791801046580076218 -1.57743370532989502 -4.65839147567749023 56 63 62
-0.190709903836250305 -1.08053803443908691 -4.31399965286254883 52 56 59
